<svg width="14" height="14" viewBox="0 0 14 14" fill="none" xmlns="http://www.w3.org/2000/svg">
<path d="M5.93399 6.18366H6H7.40011C7.68542 6.18366 7.91712 5.952 7.91712 5.66667C7.91712 5.38393 7.68641 5.14968 7.40011 5.14968H5.93399H5.70382H5.68399H5.66698H3.93385C3.64756 5.14968 3.41685 5.38393 3.41685 5.66667C3.41685 5.952 3.64854 6.18366 3.93385 6.18366H5H5.68399H5.93399ZM3.93385 5.64968H4.78958C4.79001 5.65059 4.79045 5.6515 4.7909 5.6524C4.79655 5.66389 4.80273 5.67428 4.80915 5.68366H3.93385C3.92465 5.68366 3.91685 5.67583 3.91685 5.66667C3.91685 5.6635 3.91804 5.65922 3.92227 5.65497C3.92635 5.65087 3.93037 5.64968 3.93385 5.64968ZM7.40011 5.68366H6.25V5.64968H7.40011C7.40359 5.64968 7.40761 5.65087 7.41169 5.65497C7.41592 5.65922 7.41712 5.6635 7.41712 5.66667C7.41712 5.67583 7.40931 5.68366 7.40011 5.68366ZM12.3693 13.0975L12.3693 13.0975C12.4702 13.1984 12.602 13.25 12.7338 13.25C12.8672 13.25 12.9969 13.1972 13.0967 13.0975C13.3011 12.8931 13.3011 12.5746 13.0967 12.3701L9.48565 8.75937C10.1686 7.91326 10.584 6.83272 10.584 5.66667C10.584 2.95576 8.37803 0.75 5.66698 0.75C2.95594 0.75 0.75 2.95576 0.75 5.66667C0.75 8.37757 2.95594 10.5833 5.66698 10.5833C6.83308 10.5833 7.9136 10.168 8.75969 9.48656L12.3693 13.0975ZM5.66698 9.54935C3.52482 9.54935 1.7824 7.80839 1.7824 5.66667C1.7824 3.52495 3.52482 1.78398 5.66698 1.78398C7.80901 1.78398 9.54995 3.52482 9.54995 5.66667C9.54995 7.80852 7.80901 9.54935 5.66698 9.54935Z" fill="white" stroke="white" stroke-width="0.5"/>
</svg>
